<mxfile host="app.diagrams.net" agent="Mozilla/5.0 (Windows NT 10.0; Win64; x64) AppleWebKit/537.36 (KHTML, like Gecko) Chrome/131.0.0.0 Safari/537.36 Edg/131.0.0.0" version="25.0.0">
  <diagram name="Page-1" id="I6kNBOrfu8EHdy3ZmdIW">
    <mxGraphModel dx="820" dy="562" grid="1" gridSize="10" guides="1" tooltips="1" connect="1" arrows="1" fold="1" page="1" pageScale="1" pageWidth="850" pageHeight="1100" math="0" shadow="0">
      <root>
        <mxCell id="0" />
        <mxCell id="1" parent="0" />
        <mxCell id="XetKOPu3Qg_WPPBAEXBo-107" value="&lt;div&gt;R6&lt;/div&gt;" style="rounded=0;whiteSpace=wrap;html=1;align=right;fillColor=#fff2cc;strokeColor=#d6b656;" vertex="1" parent="1">
          <mxGeometry x="760" y="197.5" width="60" height="22.5" as="geometry" />
        </mxCell>
        <mxCell id="XetKOPu3Qg_WPPBAEXBo-95" value="&lt;div&gt;R5, R6&lt;/div&gt;" style="rounded=0;whiteSpace=wrap;html=1;align=right;fillColor=#fff2cc;strokeColor=#d6b656;" vertex="1" parent="1">
          <mxGeometry x="910" y="123.75" width="60" height="22.5" as="geometry" />
        </mxCell>
        <mxCell id="XetKOPu3Qg_WPPBAEXBo-90" value="R1, R2, R3&lt;div&gt;R7&lt;/div&gt;" style="rounded=0;whiteSpace=wrap;html=1;align=right;fillColor=#fff2cc;strokeColor=#d6b656;direction=east;" vertex="1" parent="1">
          <mxGeometry x="360" y="176" width="90" height="34" as="geometry" />
        </mxCell>
        <mxCell id="XetKOPu3Qg_WPPBAEXBo-89" value="R1, R2, R3&lt;div&gt;R4&lt;/div&gt;&lt;div&gt;R7&lt;/div&gt;" style="rounded=0;whiteSpace=wrap;html=1;align=right;fillColor=#fff2cc;strokeColor=#d6b656;" vertex="1" parent="1">
          <mxGeometry x="570" y="336.25" width="90" height="47.5" as="geometry" />
        </mxCell>
        <mxCell id="XetKOPu3Qg_WPPBAEXBo-59" value="" style="rounded=0;whiteSpace=wrap;html=1;" vertex="1" parent="1">
          <mxGeometry x="180" y="580" width="70" height="80" as="geometry" />
        </mxCell>
        <mxCell id="XetKOPu3Qg_WPPBAEXBo-14" value="" style="endArrow=none;dashed=1;html=1;strokeWidth=2;rounded=0;fillColor=#fa6800;strokeColor=#C73500;" edge="1" parent="1">
          <mxGeometry width="50" height="50" relative="1" as="geometry">
            <mxPoint x="780" y="300" as="sourcePoint" />
            <mxPoint x="690" y="490" as="targetPoint" />
            <Array as="points">
              <mxPoint x="670" y="300" />
            </Array>
          </mxGeometry>
        </mxCell>
        <mxCell id="XetKOPu3Qg_WPPBAEXBo-28" value="&lt;font color=&quot;#ea6b66&quot; style=&quot;font-size: 16px;&quot;&gt;Server / DRM Host&lt;/font&gt;" style="edgeLabel;html=1;align=center;verticalAlign=middle;resizable=0;points=[];" vertex="1" connectable="0" parent="XetKOPu3Qg_WPPBAEXBo-14">
          <mxGeometry x="0.4733" relative="1" as="geometry">
            <mxPoint x="33" y="33" as="offset" />
          </mxGeometry>
        </mxCell>
        <mxCell id="XetKOPu3Qg_WPPBAEXBo-6" value="" style="endArrow=none;dashed=1;html=1;strokeWidth=2;rounded=0;fillColor=#fa6800;strokeColor=#C73500;" edge="1" parent="1">
          <mxGeometry width="50" height="50" relative="1" as="geometry">
            <mxPoint x="790" y="270" as="sourcePoint" />
            <mxPoint x="670" y="130" as="targetPoint" />
            <Array as="points">
              <mxPoint x="670" y="260" />
            </Array>
          </mxGeometry>
        </mxCell>
        <mxCell id="XetKOPu3Qg_WPPBAEXBo-20" value="&lt;font style=&quot;font-size: 15px;&quot; color=&quot;#ea6b66&quot;&gt;Game / Data&lt;/font&gt;" style="edgeLabel;html=1;align=center;verticalAlign=middle;resizable=0;points=[];" vertex="1" connectable="0" parent="XetKOPu3Qg_WPPBAEXBo-6">
          <mxGeometry x="0.7142" y="2" relative="1" as="geometry">
            <mxPoint y="-1" as="offset" />
          </mxGeometry>
        </mxCell>
        <mxCell id="XetKOPu3Qg_WPPBAEXBo-3" value="" style="endArrow=none;dashed=1;html=1;strokeWidth=2;rounded=0;fillColor=#fa6800;strokeColor=#C73500;" edge="1" parent="1">
          <mxGeometry width="50" height="50" relative="1" as="geometry">
            <mxPoint x="250" y="490" as="sourcePoint" />
            <mxPoint x="250" y="135" as="targetPoint" />
          </mxGeometry>
        </mxCell>
        <mxCell id="XetKOPu3Qg_WPPBAEXBo-15" value="&lt;font style=&quot;font-size: 15px;&quot; color=&quot;#ea6b66&quot;&gt;Human / OS&lt;/font&gt;" style="edgeLabel;html=1;align=center;verticalAlign=middle;resizable=0;points=[];" vertex="1" connectable="0" parent="XetKOPu3Qg_WPPBAEXBo-3">
          <mxGeometry x="-0.8112" y="-1" relative="1" as="geometry">
            <mxPoint y="-7" as="offset" />
          </mxGeometry>
        </mxCell>
        <mxCell id="XetKOPu3Qg_WPPBAEXBo-4" value="" style="endArrow=none;dashed=1;html=1;strokeWidth=2;rounded=0;fillColor=#fa6800;strokeColor=#C73500;" edge="1" parent="1">
          <mxGeometry width="50" height="50" relative="1" as="geometry">
            <mxPoint x="440" y="490" as="sourcePoint" />
            <mxPoint x="470" y="140" as="targetPoint" />
          </mxGeometry>
        </mxCell>
        <mxCell id="XetKOPu3Qg_WPPBAEXBo-17" value="&lt;font style=&quot;font-size: 15px;&quot; color=&quot;#ea6b66&quot;&gt;(HTTP, WS, UDP) / Server&lt;/font&gt;" style="edgeLabel;html=1;align=center;verticalAlign=middle;resizable=0;points=[];" vertex="1" connectable="0" parent="XetKOPu3Qg_WPPBAEXBo-4">
          <mxGeometry x="-0.8846" y="-1" relative="1" as="geometry">
            <mxPoint x="-21" y="-20" as="offset" />
          </mxGeometry>
        </mxCell>
        <mxCell id="XetKOPu3Qg_WPPBAEXBo-22" style="rounded=0;orthogonalLoop=1;jettySize=auto;html=1;entryX=0;entryY=0.5;entryDx=0;entryDy=0;startArrow=classic;startFill=1;" edge="1" parent="1" source="XetKOPu3Qg_WPPBAEXBo-1" target="XetKOPu3Qg_WPPBAEXBo-13">
          <mxGeometry relative="1" as="geometry" />
        </mxCell>
        <mxCell id="XetKOPu3Qg_WPPBAEXBo-26" style="rounded=0;orthogonalLoop=1;jettySize=auto;html=1;entryX=0;entryY=0.5;entryDx=0;entryDy=0;startArrow=classic;startFill=1;" edge="1" parent="1" source="XetKOPu3Qg_WPPBAEXBo-1" target="XetKOPu3Qg_WPPBAEXBo-5">
          <mxGeometry relative="1" as="geometry" />
        </mxCell>
        <mxCell id="XetKOPu3Qg_WPPBAEXBo-1" value="Game&lt;div&gt;Client&lt;/div&gt;" style="ellipse;whiteSpace=wrap;html=1;aspect=fixed;" vertex="1" parent="1">
          <mxGeometry x="300" y="170" width="80" height="80" as="geometry" />
        </mxCell>
        <mxCell id="XetKOPu3Qg_WPPBAEXBo-21" style="rounded=0;orthogonalLoop=1;jettySize=auto;html=1;entryX=0;entryY=0.5;entryDx=0;entryDy=0;startArrow=classic;startFill=1;" edge="1" parent="1" source="XetKOPu3Qg_WPPBAEXBo-2" target="XetKOPu3Qg_WPPBAEXBo-1">
          <mxGeometry relative="1" as="geometry" />
        </mxCell>
        <mxCell id="XetKOPu3Qg_WPPBAEXBo-2" value="Player" style="rounded=0;whiteSpace=wrap;html=1;" vertex="1" parent="1">
          <mxGeometry x="80" y="180" width="120" height="60" as="geometry" />
        </mxCell>
        <mxCell id="XetKOPu3Qg_WPPBAEXBo-32" style="rounded=0;orthogonalLoop=1;jettySize=auto;html=1;exitX=0.766;exitY=0.966;exitDx=0;exitDy=0;entryX=0.5;entryY=0;entryDx=0;entryDy=0;exitPerimeter=0;startArrow=classic;startFill=1;" edge="1" parent="1" source="XetKOPu3Qg_WPPBAEXBo-5" target="XetKOPu3Qg_WPPBAEXBo-36">
          <mxGeometry relative="1" as="geometry">
            <mxPoint x="590" y="450" as="targetPoint" />
          </mxGeometry>
        </mxCell>
        <mxCell id="XetKOPu3Qg_WPPBAEXBo-5" value="Game&lt;div&gt;Server&lt;/div&gt;" style="ellipse;whiteSpace=wrap;html=1;aspect=fixed;" vertex="1" parent="1">
          <mxGeometry x="510" y="320" width="80" height="80" as="geometry" />
        </mxCell>
        <mxCell id="XetKOPu3Qg_WPPBAEXBo-12" value="DRM&lt;div&gt;Server&lt;/div&gt;" style="ellipse;whiteSpace=wrap;html=1;aspect=fixed;" vertex="1" parent="1">
          <mxGeometry x="710" y="330" width="80" height="80" as="geometry" />
        </mxCell>
        <mxCell id="XetKOPu3Qg_WPPBAEXBo-23" style="rounded=0;orthogonalLoop=1;jettySize=auto;html=1;entryX=0;entryY=0.5;entryDx=0;entryDy=0;startArrow=classic;startFill=1;" edge="1" parent="1" source="XetKOPu3Qg_WPPBAEXBo-13" target="XetKOPu3Qg_WPPBAEXBo-18">
          <mxGeometry relative="1" as="geometry" />
        </mxCell>
        <mxCell id="XetKOPu3Qg_WPPBAEXBo-27" style="rounded=0;orthogonalLoop=1;jettySize=auto;html=1;exitX=1;exitY=1;exitDx=0;exitDy=0;entryX=0;entryY=0;entryDx=0;entryDy=0;startArrow=classic;startFill=1;" edge="1" parent="1" source="XetKOPu3Qg_WPPBAEXBo-13" target="XetKOPu3Qg_WPPBAEXBo-12">
          <mxGeometry relative="1" as="geometry" />
        </mxCell>
        <mxCell id="XetKOPu3Qg_WPPBAEXBo-13" value="Central&lt;div&gt;Server&lt;/div&gt;" style="ellipse;whiteSpace=wrap;html=1;aspect=fixed;" vertex="1" parent="1">
          <mxGeometry x="510" y="200" width="80" height="80" as="geometry" />
        </mxCell>
        <mxCell id="XetKOPu3Qg_WPPBAEXBo-24" style="rounded=0;orthogonalLoop=1;jettySize=auto;html=1;entryX=0.5;entryY=1;entryDx=0;entryDy=0;exitX=1;exitY=0;exitDx=0;exitDy=0;startArrow=classic;startFill=1;" edge="1" parent="1" source="XetKOPu3Qg_WPPBAEXBo-18">
          <mxGeometry relative="1" as="geometry">
            <mxPoint x="860" y="150" as="targetPoint" />
          </mxGeometry>
        </mxCell>
        <mxCell id="XetKOPu3Qg_WPPBAEXBo-106" style="rounded=0;orthogonalLoop=1;jettySize=auto;html=1;exitX=1;exitY=1;exitDx=0;exitDy=0;entryX=0;entryY=0.5;entryDx=0;entryDy=0;startArrow=classic;startFill=1;" edge="1" parent="1" source="XetKOPu3Qg_WPPBAEXBo-18" target="XetKOPu3Qg_WPPBAEXBo-105">
          <mxGeometry relative="1" as="geometry" />
        </mxCell>
        <mxCell id="XetKOPu3Qg_WPPBAEXBo-18" value="Data&lt;div&gt;Server&lt;/div&gt;" style="ellipse;whiteSpace=wrap;html=1;aspect=fixed;" vertex="1" parent="1">
          <mxGeometry x="710" y="170" width="80" height="80" as="geometry" />
        </mxCell>
        <mxCell id="XetKOPu3Qg_WPPBAEXBo-33" value="" style="group" vertex="1" connectable="0" parent="1">
          <mxGeometry x="540" y="460" width="140" height="45" as="geometry" />
        </mxCell>
        <mxCell id="XetKOPu3Qg_WPPBAEXBo-93" value="&lt;div&gt;R4&lt;/div&gt;" style="rounded=0;whiteSpace=wrap;html=1;align=right;fillColor=#fff2cc;strokeColor=#d6b656;" vertex="1" parent="XetKOPu3Qg_WPPBAEXBo-33">
          <mxGeometry x="36" y="3" width="90" height="22.5" as="geometry" />
        </mxCell>
        <mxCell id="XetKOPu3Qg_WPPBAEXBo-34" value="" style="endArrow=none;html=1;rounded=0;entryX=1;entryY=0;entryDx=0;entryDy=0;" edge="1" parent="XetKOPu3Qg_WPPBAEXBo-33" target="XetKOPu3Qg_WPPBAEXBo-36">
          <mxGeometry width="50" height="50" relative="1" as="geometry">
            <mxPoint as="sourcePoint" />
            <mxPoint x="100" as="targetPoint" />
          </mxGeometry>
        </mxCell>
        <mxCell id="XetKOPu3Qg_WPPBAEXBo-35" value="" style="endArrow=none;html=1;rounded=0;entryX=1;entryY=1;entryDx=0;entryDy=0;" edge="1" parent="XetKOPu3Qg_WPPBAEXBo-33" target="XetKOPu3Qg_WPPBAEXBo-36">
          <mxGeometry width="50" height="50" relative="1" as="geometry">
            <mxPoint y="30" as="sourcePoint" />
            <mxPoint x="100" y="30" as="targetPoint" />
          </mxGeometry>
        </mxCell>
        <mxCell id="XetKOPu3Qg_WPPBAEXBo-36" value="Server Config" style="text;html=1;align=center;verticalAlign=middle;whiteSpace=wrap;rounded=0;fillColor=default;" vertex="1" parent="XetKOPu3Qg_WPPBAEXBo-33">
          <mxGeometry x="-10" width="100" height="30" as="geometry" />
        </mxCell>
        <mxCell id="XetKOPu3Qg_WPPBAEXBo-41" value="" style="shape=umlActor;verticalLabelPosition=bottom;verticalAlign=top;html=1;outlineConnect=0;" vertex="1" parent="1">
          <mxGeometry x="200" y="590" width="30" height="60" as="geometry" />
        </mxCell>
        <mxCell id="XetKOPu3Qg_WPPBAEXBo-50" style="edgeStyle=orthogonalEdgeStyle;rounded=0;orthogonalLoop=1;jettySize=auto;html=1;exitX=1;exitY=0;exitDx=0;exitDy=0;entryX=0;entryY=0;entryDx=0;entryDy=0;" edge="1" parent="1" source="XetKOPu3Qg_WPPBAEXBo-45" target="XetKOPu3Qg_WPPBAEXBo-47">
          <mxGeometry relative="1" as="geometry" />
        </mxCell>
        <mxCell id="XetKOPu3Qg_WPPBAEXBo-66" value="UDP(Input, View Matrix)" style="edgeLabel;html=1;align=center;verticalAlign=middle;resizable=0;points=[];" vertex="1" connectable="0" parent="XetKOPu3Qg_WPPBAEXBo-50">
          <mxGeometry x="-0.0161" relative="1" as="geometry">
            <mxPoint y="-12" as="offset" />
          </mxGeometry>
        </mxCell>
        <mxCell id="XetKOPu3Qg_WPPBAEXBo-45" value="Client" style="ellipse;whiteSpace=wrap;html=1;aspect=fixed;" vertex="1" parent="1">
          <mxGeometry x="400" y="580" width="80" height="80" as="geometry" />
        </mxCell>
        <mxCell id="XetKOPu3Qg_WPPBAEXBo-56" style="edgeStyle=orthogonalEdgeStyle;rounded=0;orthogonalLoop=1;jettySize=auto;html=1;exitX=0;exitY=1;exitDx=0;exitDy=0;entryX=1;entryY=1;entryDx=0;entryDy=0;" edge="1" parent="1" source="XetKOPu3Qg_WPPBAEXBo-47" target="XetKOPu3Qg_WPPBAEXBo-45">
          <mxGeometry relative="1" as="geometry" />
        </mxCell>
        <mxCell id="XetKOPu3Qg_WPPBAEXBo-73" value="UDP(Entity List)" style="edgeLabel;html=1;align=center;verticalAlign=middle;resizable=0;points=[];" vertex="1" connectable="0" parent="XetKOPu3Qg_WPPBAEXBo-56">
          <mxGeometry x="0.1329" y="-1" relative="1" as="geometry">
            <mxPoint x="10" y="-8" as="offset" />
          </mxGeometry>
        </mxCell>
        <mxCell id="XetKOPu3Qg_WPPBAEXBo-47" value="Server" style="ellipse;whiteSpace=wrap;html=1;aspect=fixed;" vertex="1" parent="1">
          <mxGeometry x="580" y="580" width="80" height="80" as="geometry" />
        </mxCell>
        <mxCell id="XetKOPu3Qg_WPPBAEXBo-48" value="DB" style="shape=cylinder3;whiteSpace=wrap;html=1;boundedLbl=1;backgroundOutline=1;size=15;" vertex="1" parent="1">
          <mxGeometry x="760" y="580" width="60" height="80" as="geometry" />
        </mxCell>
        <mxCell id="XetKOPu3Qg_WPPBAEXBo-51" style="edgeStyle=orthogonalEdgeStyle;rounded=0;orthogonalLoop=1;jettySize=auto;html=1;exitX=1;exitY=0;exitDx=0;exitDy=0;entryX=0;entryY=0.145;entryDx=0;entryDy=0;entryPerimeter=0;dashed=1;" edge="1" parent="1" source="XetKOPu3Qg_WPPBAEXBo-47" target="XetKOPu3Qg_WPPBAEXBo-48">
          <mxGeometry relative="1" as="geometry" />
        </mxCell>
        <mxCell id="XetKOPu3Qg_WPPBAEXBo-63" style="edgeStyle=orthogonalEdgeStyle;rounded=0;orthogonalLoop=1;jettySize=auto;html=1;exitX=0;exitY=1;exitDx=0;exitDy=0;entryX=0.99;entryY=0.852;entryDx=0;entryDy=0;entryPerimeter=0;" edge="1" parent="1" source="XetKOPu3Qg_WPPBAEXBo-45" target="XetKOPu3Qg_WPPBAEXBo-59">
          <mxGeometry relative="1" as="geometry" />
        </mxCell>
        <mxCell id="XetKOPu3Qg_WPPBAEXBo-74" value="Render+Audio Output" style="edgeLabel;html=1;align=center;verticalAlign=middle;resizable=0;points=[];" vertex="1" connectable="0" parent="XetKOPu3Qg_WPPBAEXBo-63">
          <mxGeometry x="0.1226" relative="1" as="geometry">
            <mxPoint x="4" y="-18" as="offset" />
          </mxGeometry>
        </mxCell>
        <mxCell id="XetKOPu3Qg_WPPBAEXBo-64" style="edgeStyle=orthogonalEdgeStyle;rounded=0;orthogonalLoop=1;jettySize=auto;html=1;exitX=0;exitY=0;exitDx=0;exitDy=0;entryX=0.977;entryY=0.148;entryDx=0;entryDy=0;entryPerimeter=0;endArrow=none;endFill=0;startArrow=classic;startFill=1;" edge="1" parent="1" source="XetKOPu3Qg_WPPBAEXBo-45" target="XetKOPu3Qg_WPPBAEXBo-59">
          <mxGeometry relative="1" as="geometry" />
        </mxCell>
        <mxCell id="XetKOPu3Qg_WPPBAEXBo-65" value="Keyboard+Mouse Input" style="edgeLabel;html=1;align=center;verticalAlign=middle;resizable=0;points=[];" vertex="1" connectable="0" parent="XetKOPu3Qg_WPPBAEXBo-64">
          <mxGeometry x="0.5934" y="-3" relative="1" as="geometry">
            <mxPoint x="48" y="-9" as="offset" />
          </mxGeometry>
        </mxCell>
        <mxCell id="XetKOPu3Qg_WPPBAEXBo-69" style="edgeStyle=orthogonalEdgeStyle;rounded=0;orthogonalLoop=1;jettySize=auto;html=1;exitX=0;exitY=0;exitDx=0;exitDy=27.5;exitPerimeter=0;entryX=0.976;entryY=0.352;entryDx=0;entryDy=0;entryPerimeter=0;dashed=1;" edge="1" parent="1" source="XetKOPu3Qg_WPPBAEXBo-48" target="XetKOPu3Qg_WPPBAEXBo-47">
          <mxGeometry relative="1" as="geometry" />
        </mxCell>
        <mxCell id="XetKOPu3Qg_WPPBAEXBo-70" style="edgeStyle=orthogonalEdgeStyle;rounded=0;orthogonalLoop=1;jettySize=auto;html=1;exitX=1;exitY=1;exitDx=0;exitDy=0;entryX=0.5;entryY=1;entryDx=0;entryDy=0;curved=1;" edge="1" parent="1" source="XetKOPu3Qg_WPPBAEXBo-47" target="XetKOPu3Qg_WPPBAEXBo-47">
          <mxGeometry relative="1" as="geometry">
            <Array as="points">
              <mxPoint x="690" y="648" />
              <mxPoint x="690" y="690" />
              <mxPoint x="620" y="690" />
            </Array>
          </mxGeometry>
        </mxCell>
        <mxCell id="XetKOPu3Qg_WPPBAEXBo-72" value="Game Loop" style="edgeLabel;html=1;align=center;verticalAlign=middle;resizable=0;points=[];" vertex="1" connectable="0" parent="XetKOPu3Qg_WPPBAEXBo-70">
          <mxGeometry x="-0.3173" relative="1" as="geometry">
            <mxPoint as="offset" />
          </mxGeometry>
        </mxCell>
        <mxCell id="XetKOPu3Qg_WPPBAEXBo-98" value="" style="group;fillColor=default;" vertex="1" connectable="0" parent="1">
          <mxGeometry x="810" y="120" width="100" height="30" as="geometry" />
        </mxCell>
        <mxCell id="XetKOPu3Qg_WPPBAEXBo-99" value="" style="endArrow=none;html=1;rounded=0;" edge="1" parent="XetKOPu3Qg_WPPBAEXBo-98">
          <mxGeometry width="50" height="50" relative="1" as="geometry">
            <mxPoint as="sourcePoint" />
            <mxPoint x="100" as="targetPoint" />
          </mxGeometry>
        </mxCell>
        <mxCell id="XetKOPu3Qg_WPPBAEXBo-100" value="" style="endArrow=none;html=1;rounded=0;" edge="1" parent="XetKOPu3Qg_WPPBAEXBo-98">
          <mxGeometry width="50" height="50" relative="1" as="geometry">
            <mxPoint y="30" as="sourcePoint" />
            <mxPoint x="100" y="30" as="targetPoint" />
          </mxGeometry>
        </mxCell>
        <mxCell id="XetKOPu3Qg_WPPBAEXBo-101" value="MySQL" style="text;html=1;align=center;verticalAlign=middle;whiteSpace=wrap;rounded=0;" vertex="1" parent="XetKOPu3Qg_WPPBAEXBo-98">
          <mxGeometry width="100" height="30" as="geometry" />
        </mxCell>
        <mxCell id="XetKOPu3Qg_WPPBAEXBo-102" value="" style="group;fillColor=default;" vertex="1" connectable="0" parent="1">
          <mxGeometry x="860" y="220" width="100" height="30" as="geometry" />
        </mxCell>
        <mxCell id="XetKOPu3Qg_WPPBAEXBo-103" value="" style="endArrow=none;html=1;rounded=0;" edge="1" parent="XetKOPu3Qg_WPPBAEXBo-102">
          <mxGeometry width="50" height="50" relative="1" as="geometry">
            <mxPoint as="sourcePoint" />
            <mxPoint x="100" as="targetPoint" />
          </mxGeometry>
        </mxCell>
        <mxCell id="XetKOPu3Qg_WPPBAEXBo-104" value="" style="endArrow=none;html=1;rounded=0;" edge="1" parent="XetKOPu3Qg_WPPBAEXBo-102">
          <mxGeometry width="50" height="50" relative="1" as="geometry">
            <mxPoint y="30" as="sourcePoint" />
            <mxPoint x="100" y="30" as="targetPoint" />
          </mxGeometry>
        </mxCell>
        <mxCell id="XetKOPu3Qg_WPPBAEXBo-105" value="FileSystem" style="text;html=1;align=center;verticalAlign=middle;whiteSpace=wrap;rounded=0;" vertex="1" parent="XetKOPu3Qg_WPPBAEXBo-102">
          <mxGeometry width="100" height="30" as="geometry" />
        </mxCell>
      </root>
    </mxGraphModel>
  </diagram>
</mxfile>
